<svg xmlns="http://www.w3.org/2000/svg" width="1200" height="600" viewBox="0 0 1200 600">
  <defs>
    <linearGradient id="bg" x1="0" y1="0" x2="1" y2="1">
      <stop offset="0" stop-color="#fff1f2"/>
      <stop offset=".55" stop-color="#eff6ff"/>
      <stop offset="1" stop-color="#f0fdf4"/>
    </linearGradient>
  </defs>
  <rect width="1200" height="600" rx="48" fill="url(#bg)"/>
  <rect x="160" y="130" width="250" height="290" rx="32" fill="#ffffff" stroke="#ef4444" stroke-width="12"/>
  <path d="M205 205h150M205 260h120M205 315h165" stroke="#94a3b8" stroke-width="14" stroke-linecap="round"/>
  <rect x="515" y="185" width="380" height="245" rx="34" fill="#ffffff" opacity=".9"/>
  <path d="M565 365l70-82 72 45 82-112 82 70" stroke="#2563eb" stroke-width="18" fill="none" stroke-linecap="round" stroke-linejoin="round"/>
  <path d="M540 390h340" stroke="#cbd5e1" stroke-width="10" stroke-linecap="round"/>
  <circle cx="955" cy="145" r="74" fill="#c4b5fd"/>
  <circle cx="980" cy="118" r="74" fill="#eff6ff"/>
  <path d="M790 462c80-48 165-48 255 0" stroke="#22c55e" stroke-width="18" fill="none" stroke-linecap="round"/>
  <rect x="330" y="420" width="250" height="42" rx="21" fill="#f97316" opacity=".55"/>
</svg>
